HIERARCHY
ROOT Hips
{
 OFFSET 0.000000 0.000000 0.000000
 CHANNELS 6 Xposition Yposition Zposition Yrotation Xrotation Zrotation
 JOINT Chest
 {
  OFFSET 0.000000 9.585900 0.002600
  CHANNELS 3 Yrotation Xrotation Zrotation
  JOINT Chest2
  {
   OFFSET 0.000000 9.601200 -0.005300
   CHANNELS 3 Yrotation Xrotation Zrotation
   JOINT Chest3
   {
    OFFSET 0.000000 9.561800 0.000000
    CHANNELS 3 Yrotation Xrotation Zrotation
    JOINT Chest4
    {
     OFFSET 0.000000 9.552100 0.000000
     CHANNELS 3 Yrotation Xrotation Zrotation
     JOINT Neck
     {
      OFFSET 0.000000 14.453000 0.000000
      CHANNELS 3 Yrotation Xrotation Zrotation
      JOINT Head
      {
       OFFSET 0.000000 8.936500 -0.011300
       CHANNELS 3 Yrotation Xrotation Zrotation
       End Site
       {
        OFFSET 0.000000 17.073600 -0.006000
       }
      }
     }
     JOINT RightCollar
     {
      OFFSET -2.921100 9.558500 0.000000
      CHANNELS 3 Yrotation Xrotation Zrotation
      JOINT RightShoulder
      {
       OFFSET -13.519700 0.000000 0.000000
       CHANNELS 3 Yrotation Xrotation Zrotation
       JOINT RightElbow
       {
        OFFSET 0.000000 -29.696600 0.000000
        CHANNELS 3 Yrotation Xrotation Zrotation
        JOINT RightWrist
        {
         OFFSET 0.000000 -24.004700 0.000000
         CHANNELS 3 Yrotation Xrotation Zrotation
         End Site
         {
          OFFSET 0.000000 -17.728500 0.000000
         }
        }
       }
      }
     }
     JOINT LeftCollar
     {
      OFFSET 2.921100 9.558500 0.000000
      CHANNELS 3 Yrotation Xrotation Zrotation
      JOINT LeftShoulder
      {
       OFFSET 13.519700 0.000000 0.000000
       CHANNELS 3 Yrotation Xrotation Zrotation
       JOINT LeftElbow
       {
        OFFSET 0.000000 -29.696600 0.000000
        CHANNELS 3 Yrotation Xrotation Zrotation
        JOINT LeftWrist
        {
         OFFSET 0.000000 -24.004700 0.000000
         CHANNELS 3 Yrotation Xrotation Zrotation
         End Site
         {
          OFFSET 0.000000 -17.728500 0.000000
         }
        }
       }
      }
     }
    }
   }
  }
 }
 JOINT RightHip
 {
  OFFSET -7.771700 -0.012900 -0.001300
  CHANNELS 3 Yrotation Xrotation Zrotation
  JOINT RightKnee
  {
   OFFSET 0.000000 -40.869800 0.001200
   CHANNELS 3 Yrotation Xrotation Zrotation
   JOINT RightAnkle
   {
    OFFSET 0.000000 -39.717900 0.002100
    CHANNELS 3 Yrotation Xrotation Zrotation
    JOINT RightToe
    {
     OFFSET 0.000000 -4.965400 11.033500
     CHANNELS 3 Yrotation Xrotation Zrotation
     End Site
     {
      OFFSET 0.000000 -1.423100 5.872300
     }
    }
   }
  }
 }
 JOINT LeftHip
 {
  OFFSET 7.771700 -0.012900 -0.001300
  CHANNELS 3 Yrotation Xrotation Zrotation
  JOINT LeftKnee
  {
   OFFSET 0.000000 -40.869800 0.001200
   CHANNELS 3 Yrotation Xrotation Zrotation
   JOINT LeftAnkle
   {
    OFFSET 0.000000 -39.717900 0.002100
    CHANNELS 3 Yrotation Xrotation Zrotation
    JOINT LeftToe
    {
     OFFSET 0.000000 -4.965400 11.033500
     CHANNELS 3 Yrotation Xrotation Zrotation
     End Site
     {
      OFFSET 0.000000 -1.423100 5.872300
     }
    }
   }
  }
 }
}
MOTION
Frames: 16
Frame Time: 0.008333
0.000000 85.388000 0.000000 0.000000 -5.767877 0.000000 0.000000 11.653817 0.000000 0.000000 -5.885947 0.000000 0.000000 -0.000000 0.000000 0.000000 -0.000000 0.000000 0.000000 12.528835 0.000000 0.000000 0.711642 0.000000 0.000000 -0.000000 0.000000 0.000000 0.000000 -90.000000 0.000000 -2.309062 0.000000 0.000000 2.309062 0.000000 0.000000 -0.000000 0.000000 0.000000 -0.000000 90.000000 0.000000 -2.309062 0.000000 0.000000 2.309062 0.000000 0.000000 8.520406 0.000000 0.000000 1.905762 0.000000 -0.000000 -4.658285 0.000000 0.000000 -0.000000 0.000000 0.000000 8.520406 0.000000 0.000000 1.905762 0.000000 -0.000000 -4.658285 0.000000 0.000000 -0.000000 0.000000
13.175038 50.059053 51.744682 175.647846 -32.524615 -6.505108 6.615799 21.051495 7.626872 0.772026 3.068569 0.796683 1.271929 4.945546 1.301694 5.338272 17.907642 5.436821 -3.890560 14.785656 0.536355 -7.448571 -8.144856 2.489356 -0.963142 -2.771927 -4.479216 1.316594 -5.656846 -5.154475 174.323386 -69.827939 179.626805 -4.393063 -10.033261 19.851061 -11.377922 -0.151005 0.616531 9.551888 -9.533513 -2.993372 -179.228941 -68.500692 -171.974648 30.523437 -3.817025 -27.635734 -0.539521 -47.889328 8.546542 -130.099016 85.016020 -118.793079 -2.447015 -13.688237 -3.089223 -0.184066 0.792719 -0.089908 -7.524019 -51.825852 14.665487 -145.628411 80.935549 -154.168108 -0.760435 -14.978980 9.506447 -0.408674 -0.791512 -0.151984
13.171723 50.057651 51.742901 175.646395 -32.517925 -6.504141 6.616967 21.055018 7.633210 0.772461 3.076013 0.799714 1.272317 4.955125 1.305733 5.333797 17.898112 5.432156 -3.857440 14.806099 0.546219 -7.419363 -8.186585 2.457438 -0.957313 -2.743780 -4.459426 1.333348 -5.663628 -5.130383 174.234087 -69.968495 179.683907 -4.440998 -10.104570 19.559139 -11.368181 -0.099174 0.636668 9.428610 -9.568539 -2.993386 -174.286328 -68.715368 -176.152670 30.139486 -4.716525 -27.100007 -0.547787 -47.894445 8.545285 -130.187112 85.025281 -118.878405 -2.460286 -13.694300 -3.093262 -0.176379 0.795541 -0.091591 -7.479467 -51.841919 14.630185 -145.697239 80.932724 -154.214298 -0.763135 -14.977716 9.510025 -0.410247 -0.801115 -0.162090
13.168261 50.055489 51.741847 175.644673 -32.503234 -6.504797 6.620423 21.061158 7.645288 0.771474 3.060835 0.791639 1.273961 4.975657 1.313012 5.330397 17.888599 5.430628 -3.837725 14.811974 0.545514 -7.386764 -8.205930 2.440439 -0.962845 -2.727242 -4.450927 1.366511 -5.657999 -5.085850 174.081956 -70.115453 179.803668 -4.509197 -10.228892 19.266005 -11.366646 -0.097612 0.635244 9.299441 -9.556015 -2.943667 -169.429687 -68.834623 179.712933 29.860080 -5.599095 -26.524533 -0.558083 -47.908493 8.543822 -130.292179 85.035093 -118.983257 -2.451208 -13.697326 -3.099835 -0.173348 0.797677 -0.090376 -7.438413 -51.865264 14.600878 -145.791849 80.932712 -154.288255 -0.772976 -14.980464 9.516504 -0.412326 -0.802216 -0.162147
13.164769 50.054226 51.739015 175.638216 -32.499403 -6.502656 6.628557 21.073935 7.652406 0.772106 3.064262 0.793101 1.274761 4.980507 1.312837 5.332506 17.896777 5.438383 -3.824273 14.803155 0.538227 -7.354954 -8.221491 2.431539 -0.972912 -2.732773 -4.450517 1.401225 -5.664649 -5.059010 173.770343 -70.286970 -179.931631 -4.582899 -10.404619 18.929690 -11.382110 -0.072758 0.637207 9.188595 -9.584964 -2.891993 -164.660210 -68.872954 175.620699 29.675895 -6.486000 -25.905740 -0.561857 -47.912148 8.543078 -130.374925 85.041270 -119.067294 -2.444075 -13.698940 -3.100208 -0.178903 0.797399 -0.092507 -7.390671 -51.875948 14.568492 -145.911496 80.933348 -154.387246 -0.786506 -14.985838 9.523076 -0.413683 -0.803743 -0.162503
13.161353 50.053307 51.735507 175.634064 -32.498590 -6.500965 6.640432 21.106845 7.663591 0.772416 3.069947 0.793903 1.271926 4.952674 1.305859 5.336325 17.947376 5.450745 -3.808731 14.765580 0.532832 -7.328697 -8.230410 2.427843 -0.977563 -2.777850 -4.454434 1.439696 -5.671566 -5.032656 173.059558 -70.470797 -179.301452 -4.649554 -10.623975 18.508962 -11.387332 -0.125163 0.636168 9.076910 -9.571243 -2.820102 -160.113815 -68.834478 171.684661 29.539472 -7.369998 -25.233110 -0.565670 -47.912944 8.539374 -130.501886 85.048575 -119.196942 -2.423703 -13.700245 -3.105452 -0.205157 0.794892 -0.091346 -7.365630 -51.878917 14.550717 -146.036903 80.935843 -154.503686 -0.807378 -14.994756 9.527652 -0.409727 -0.802516 -0.164158
13.158615 50.052060 51.732758 175.630009 -32.491860 -6.501189 6.646919 21.113757 7.667816 0.772768 3.068676 0.793783 1.272247 4.951472 1.305675 5.332741 17.962261 5.453084 -3.802081 14.745582 0.530073 -7.299099 -8.211649 2.426811 -0.987796 -2.787763 -4.447239 1.492707 -5.691459 -5.014358 171.760478 -70.659395 -178.127010 -4.685346 -10.876380 17.957764 -11.389448 -0.141570 0.636606 8.973265 -9.561035 -2.753508 -155.978026 -68.728094 168.081389 29.396834 -8.235774 -24.509606 -0.570989 -47.919968 8.539577 -130.587288 85.055281 -119.280913 -2.418911 -13.698002 -3.113334 -0.209055 0.792243 -0.085839 -7.346069 -51.886995 14.540085 -146.124864 80.936190 -154.588221 -0.817475 -15.005694 9.539573 -0.417776 -0.800714 -0.173304
13.155021 50.050688 51.730148 175.631882 -32.481833 -6.495567 6.641926 21.111472 7.660454 0.773247 3.066160 0.793468 1.272572 4.967228 1.307749 5.327143 17.966604 5.453385 -3.787192 14.747417 0.530641 -7.287707 -8.204362 2.430683 -1.003223 -2.795378 -4.437865 1.547697 -5.718958 -5.009469 169.737358 -70.823409 -176.266203 -4.653398 -11.155621 17.221058 -11.402807 -0.150766 0.633106 8.885887 -9.560612 -2.695462 -152.421023 -68.583951 164.974663 29.207062 -9.075431 -23.767748 -0.573942 -47.930130 8.533237 -130.617859 85.053363 -119.309507 -2.447065 -13.700494 -3.104225 -0.183690 0.791597 -0.092561 -7.283993 -51.901419 14.488379 -146.144836 80.936345 -154.578724 -0.835159 -15.017796 9.544506 -0.406141 -0.789661 -0.168918
13.153680 50.050796 51.726108 175.631559 -32.483726 -6.496606 6.642627 21.119461 7.662574 0.772082 3.074630 0.794806 1.272322 4.970806 1.308412 5.321856 17.970734 5.452383 -3.774788 14.753289 0.533133 -7.284056 -8.204138 2.433513 -1.012006 -2.809099 -4.432866 1.577349 -5.732542 -5.014097 166.928388 -70.910623 -173.639250 -4.507432 -11.463642 16.225134 -11.438435 -0.163650 0.631031 8.823333 -9.556921 -2.649322 -149.528086 -68.439955 162.445518 28.959436 -9.883391 -23.047603 -0.584322 -47.927783 8.534439 -130.688544 85.052032 -119.379982 -2.433385 -13.694750 -3.111498 -0.185967 0.782134 -0.092590 -7.270189 -51.899066 14.483062 -146.110705 80.927583 -154.544694 -0.837837 -15.022691 9.555038 -0.401649 -0.791089 -0.169952
13.152677 50.050432 51.723323 175.633440 -32.476609 -6.495805 6.633982 21.139603 7.660822 0.771175 3.077546 0.794977 1.270846 4.975134 1.308804 5.326626 17.949043 5.445135 -3.776643 14.783708 0.543560 -7.275604 -8.236275 2.426598 -1.022181 -2.814926 -4.425980 1.698841 -5.783761 -5.024386 163.133422 -70.920335 -170.133765 -4.215924 -11.804903 14.884013 -11.466080 -0.186425 0.614962 8.748801 -9.533233 -2.591916 -147.255614 -68.321242 160.448066 28.684539 -10.654191 -22.363031 -0.592605 -47.934703 8.533950 -130.738881 85.051102 -119.428346 -2.437564 -13.691837 -3.116220 -0.172553 0.776423 -0.092363 -7.266614 -51.904084 14.483537 -146.086393 80.923133 -154.525298 -0.850022 -15.025799 9.563451 -0.393072 -0.790076 -0.169206
13.152833 50.050288 51.721013 175.626217 -32.468306 -6.491577 6.635850 21.143007 7.661393 0.770684 3.078559 0.794958 1.270033 4.976704 1.308800 5.326564 17.945060 5.441916 -3.782852 14.802291 0.553485 -7.269846 -8.225605 2.428851 -1.032456 -2.820993 -4.419170 1.820956 -5.820960 -5.065203 158.655605 -70.756003 -165.948839 -3.787052 -12.190109 13.123857 -11.507979 -0.224362 0.581564 8.691586 -9.487671 -2.513925 -145.453038 -68.238770 158.843634 28.430838 -11.392073 -21.697312 -0.592985 -47.943345 8.533810 -130.755571 85.046474 -119.440887 -2.428678 -13.691580 -3.127187 -0.204699 0.774448 -0.089101 -7.263917 -51.909279 14.492573 -146.060168 80.917862 -154.510380 -0.855024 -15.029348 9.576853 -0.392214 -0.790582 -0.172332
13.153316 50.050777 51.718255 175.633647 -32.462652 -6.491526 6.627149 21.148491 7.660939 0.770120 3.079420 0.794908 1.269999 4.972887 1.306218 5.314468 17.969144 5.448168 -3.782687 14.794688 0.554303 -7.269010 -8.215575 2.435924 -1.028872 -2.847472 -4.424195 1.939979 -5.849501 -5.120881 153.615041 -70.389995 -161.199032 -3.249935 -12.629974 10.915007 -11.535908 -0.296226 0.534816 8.633403 -9.414367 -2.412958 -143.951366 -68.187765 157.490626 28.222573 -12.111381 -21.018153 -0.599470 -47.946521 8.528152 -130.835774 85.049743 -119.515947 -2.429756 -13.693433 -3.139470 -0.171537 0.775028 -0.083644 -7.272923 -51.911170 14.493946 -146.030668 80.915669 -154.489284 -0.856650 -15.028185 9.581288 -0.392874 -0.790970 -0.172098
13.154717 50.051326 51.716134 175.639342 -32.454416 -6.491517 6.619034 21.148472 7.660548 0.769451 3.079828 0.794854 1.272401 4.972116 1.304724 5.311367 17.969114 5.447038 -3.789274 14.798878 0.558216 -7.283749 -8.205824 2.448423 -1.030890 -2.852390 -4.424711 2.055468 -5.877729 -5.188768 148.247846 -69.810338 -156.133296 -2.635316 -13.107046 8.288458 -11.575481 -0.356045 0.487173 8.571477 -9.311554 -2.279710 -142.586423 -68.143986 156.256738 28.049289 -12.826796 -20.286688 -0.603739 -47.952720 8.524047 -130.889633 85.052740 -119.566951 -2.422058 -13.693730 -3.148275 -0.170870 0.773094 -0.081056 -7.288389 -51.917106 14.501056 -145.930009 80.906868 -154.401054 -0.839164 -15.020346 9.588766 -0.394927 -0.799919 -0.176092
13.156704 50.051998 51.714408 175.643194 -32.445100 -6.490178 6.611484 21.144131 7.657986 0.769638 3.078755 0.793883 1.269716 4.977024 1.306511 5.310643 17.966653 5.443846 -3.789340 14.797489 0.557598 -7.307080 -8.189030 2.463758 -1.044672 -2.853735 -4.421094 2.184690 -5.912273 -5.276752 142.864904 -69.016870 -151.047657 -1.988458 -13.581059 5.332680 -11.591702 -0.389897 0.461387 8.479038 -9.218128 -2.144272 -141.140969 -68.066893 154.964957 27.886744 -13.572063 -19.461662 -0.606845 -47.959981 8.520017 -130.929994 85.056157 -119.603272 -2.417582 -13.693866 -3.158700 -0.171436 0.771506 -0.077789 -7.303323 -51.924042 14.509434 -145.885483 80.902613 -154.368645 -0.834194 -15.010743 9.599109 -0.395846 -0.809698 -0.182475
13.157935 50.052727 51.712790 175.645126 -32.435290 -6.480215 6.603582 21.137083 7.645816 0.768539 3.079648 0.794763 1.266527 4.978586 1.308212 5.282175 17.966191 5.437225 -3.776136 14.801138 0.557276 -7.365093 -8.192540 2.479809 -1.056194 -2.861332 -4.440671 2.345274 -5.940782 -5.360649 137.747976 -68.042671 -146.211816 -1.357116 -14.019987 2.182128 -11.611717 -0.476926 0.401134 8.384392 -9.072030 -1.946675 -139.335051 -67.900361 153.375942 27.715422 -14.419050 -18.500948 -0.603695 -47.968630 8.511951 -130.944054 85.059152 -119.609968 -2.465236 -13.695496 -3.156532 -0.122191 0.771402 -0.081764 -7.300258 -51.934684 14.498534 -145.829291 80.897797 -154.318399 -0.824747 -14.992572 9.602076 -0.393262 -0.820017 -0.181513
13.158671 50.053047 51.712131 175.646090 -32.418826 -6.465144 6.585169 21.127370 7.626895 0.755728 3.081255 0.794382 1.275291 4.974951 1.304909 5.265854 17.962203 5.426950 -3.813548 14.793701 0.557097 -7.323643 -8.184987 2.466733 -1.053712 -2.870789 -4.452657 2.505458 -5.961625 -5.455628 133.099574 -66.947965 -141.842528 -0.772930 -14.411619 -0.995115 -11.636689 -0.566659 0.356909 8.265246 -8.924166 -1.743034 -136.956691 -67.581671 151.297193 27.523507 -15.430628 -17.378766 -0.599380 -47.985765 8.498053 -131.018160 85.065148 -119.683272 -2.491205 -13.696441 -3.160380 -0.189820 0.768633 -0.082548 -7.290876 -51.950628 14.481884 -145.800756 80.897490 -154.297531 -0.824281 -14.982244 9.608380 -0.392362 -0.827380 -0.182680
